{"title":"Allie Haze - As Big As It Gets - NewSensations","uid":10405219,"size":598264469,"categoryP":"porn","categoryS":"movie_clips","magnet":"?xt=urn:btih:a93dbcf3c5bae546b01596c97c652e5924bbfa1b&amp;dn=Allie+Haze+-+As+Big+As+It+Gets+-+NewSensations&amp;tr=udp%3A%2F%2Ftracker.openbittorrent.com%3A80&amp;tr=udp%3A%2F%2Fopen.demonii.com%3A1337&amp;tr=udp%3A%2F%2Ftracker.coppersurfer.tk%3A6969&amp;tr=udp%3A%2F%2Fexodus.desync.com%3A6969","seeders":1,"leechers":2,"uploader":"athklym","files":-1,"time":1403444546,"description":" &lt;a href=&quot;http://bayimg.com/dAooHaaFn&quot; rel=&quot;nofollow&quot; target=&quot;_NEW&quot;&gt;http://bayimg.com/dAooHaaFn&lt;/a&gt;\nAllie_Haze_As_Big_As_It_Gets_Newsensations.wmv\nFormat                                   : Windows Media\nFile size                                : 571 MiB\nDuration                                 : 29mn 51s\nOverall bit rate                         : 2 671 Kbps\nMaximum Overall bit rate                 : 2 628 Kbps\nEncoded date                             : UTC 1970-01-01 00:00:00.000\nmajor_brand                              : mp42\nminor_version                            : 1\ncompatible_brands                        : mp42mp41\nWM/EncodingSettings                      : Lavf55.12.100\n\nVideo\nID                                       : 1\nFormat                                   : WMV2\nCodec ID                                 : WMV2\nCodec ID/Info                            : Windows Media Video 8\nDescription of the codec                 : wmv2\nDuration                                 : 29mn 51s\nBit rate                                 : 2 429 Kbps\nWidth                                    : 1 024 pixels\nHeight                                   : 576 pixels\nDisplay aspect ratio                     : 16:9\nFrame rate                               : 30.000 fps\nBit depth                                : 8 bits\nBits/(Pixel*Frame)                       : 0.137\nStream size                              : 519 MiB (91%)\n\nAudio\nID                                       : 2\nFormat                                   : WMA\nFormat version                           : Version 2\nCodec ID                                 : 161\nCodec ID/Info                            : Windows Media Audio\nDescription of the codec                 : Windows Media Audio V8\nDuration                                 : 29mn 51s\nBit rate                                 : 128 Kbps\nChannel(s)                               : 2 channels\nSampling rate                            : 48.0 KHz\nBit depth                                : 16 bits\nStream size                              : 27.3 MiB (5%)\n\n","torrent":{"xt":"urn:btih:a93dbcf3c5bae546b01596c97c652e5924bbfa1b","amp;dn":"Allie+Haze+-+As+Big+As+It+Gets+-+NewSensations","amp;tr":["udp%3A%2F%2Ftracker.openbittorrent.com%3A80","udp%3A%2F%2Fopen.demonii.com%3A1337","udp%3A%2F%2Ftracker.coppersurfer.tk%3A6969","udp%3A%2F%2Fexodus.desync.com%3A6969"],"infoHash":"a93dbcf3c5bae546b01596c97c652e5924bbfa1b","infoHashBuffer":{"type":"Buffer","data":[169,61,188,243,197,186,229,70,176,21,150,201,124,101,46,89,36,187,250,27]},"announce":[],"urlList":[]}}